<mxfile host="app.diagrams.net" modified="2023-09-15T11:00:39.496Z" agent="Mozilla/5.0 (Windows NT 10.0; Win64; x64) AppleWebKit/537.36 (KHTML, like Gecko) Chrome/116.0.0.0 Safari/537.36" etag="K2pYyM7JvNIRY1gQMuYl" version="21.7.5" type="github">
  <diagram id="R2lEEEUBdFMjLlhIrx00" name="Page-1">
    <mxGraphModel dx="2097" dy="652" grid="1" gridSize="10" guides="1" tooltips="1" connect="1" arrows="1" fold="1" page="1" pageScale="1" pageWidth="850" pageHeight="1100" math="0" shadow="0" extFonts="Permanent Marker^https://fonts.googleapis.com/css?family=Permanent+Marker">
      <root>
        <mxCell id="0" />
        <mxCell id="1" parent="0" />
        <mxCell id="C-vyLk0tnHw3VtMMgP7b-1" value="" style="edgeStyle=entityRelationEdgeStyle;endArrow=ERzeroToMany;startArrow=ERone;endFill=1;startFill=0;" parent="1" source="C-vyLk0tnHw3VtMMgP7b-24" target="C-vyLk0tnHw3VtMMgP7b-6" edge="1">
          <mxGeometry width="100" height="100" relative="1" as="geometry">
            <mxPoint x="3380" y="2250" as="sourcePoint" />
            <mxPoint x="3480" y="2150" as="targetPoint" />
          </mxGeometry>
        </mxCell>
        <mxCell id="C-vyLk0tnHw3VtMMgP7b-12" value="" style="edgeStyle=entityRelationEdgeStyle;endArrow=ERzeroToMany;startArrow=ERone;endFill=1;startFill=0;" parent="1" source="C-vyLk0tnHw3VtMMgP7b-3" target="C-vyLk0tnHw3VtMMgP7b-17" edge="1">
          <mxGeometry width="100" height="100" relative="1" as="geometry">
            <mxPoint x="3440" y="1710" as="sourcePoint" />
            <mxPoint x="3500" y="1735" as="targetPoint" />
          </mxGeometry>
        </mxCell>
        <mxCell id="C-vyLk0tnHw3VtMMgP7b-2" value="Orders" style="shape=table;startSize=30;container=1;collapsible=1;childLayout=tableLayout;fixedRows=1;rowLines=0;fontStyle=1;align=center;resizeLast=1;" parent="1" vertex="1" collapsed="1">
          <mxGeometry x="3660" y="2080" width="80" height="30" as="geometry">
            <mxRectangle x="910" y="560" width="250" height="130" as="alternateBounds" />
          </mxGeometry>
        </mxCell>
        <mxCell id="C-vyLk0tnHw3VtMMgP7b-3" value="" style="shape=partialRectangle;collapsible=0;dropTarget=0;pointerEvents=0;fillColor=none;points=[[0,0.5],[1,0.5]];portConstraint=eastwest;top=0;left=0;right=0;bottom=1;" parent="C-vyLk0tnHw3VtMMgP7b-2" vertex="1">
          <mxGeometry y="30" width="250" height="30" as="geometry" />
        </mxCell>
        <mxCell id="C-vyLk0tnHw3VtMMgP7b-4" value="PK" style="shape=partialRectangle;overflow=hidden;connectable=0;fillColor=none;top=0;left=0;bottom=0;right=0;fontStyle=1;" parent="C-vyLk0tnHw3VtMMgP7b-3" vertex="1">
          <mxGeometry width="30" height="30" as="geometry">
            <mxRectangle width="30" height="30" as="alternateBounds" />
          </mxGeometry>
        </mxCell>
        <mxCell id="C-vyLk0tnHw3VtMMgP7b-5" value="order_id int NOT NULL " style="shape=partialRectangle;overflow=hidden;connectable=0;fillColor=none;top=0;left=0;bottom=0;right=0;align=left;spacingLeft=6;fontStyle=5;" parent="C-vyLk0tnHw3VtMMgP7b-3" vertex="1">
          <mxGeometry x="30" width="220" height="30" as="geometry">
            <mxRectangle width="220" height="30" as="alternateBounds" />
          </mxGeometry>
        </mxCell>
        <mxCell id="C-vyLk0tnHw3VtMMgP7b-6" value="" style="shape=partialRectangle;collapsible=0;dropTarget=0;pointerEvents=0;fillColor=none;points=[[0,0.5],[1,0.5]];portConstraint=eastwest;top=0;left=0;right=0;bottom=0;" parent="C-vyLk0tnHw3VtMMgP7b-2" vertex="1">
          <mxGeometry y="60" width="250" height="30" as="geometry" />
        </mxCell>
        <mxCell id="C-vyLk0tnHw3VtMMgP7b-7" value="FK1" style="shape=partialRectangle;overflow=hidden;connectable=0;fillColor=none;top=0;left=0;bottom=0;right=0;" parent="C-vyLk0tnHw3VtMMgP7b-6" vertex="1">
          <mxGeometry width="30" height="30" as="geometry">
            <mxRectangle width="30" height="30" as="alternateBounds" />
          </mxGeometry>
        </mxCell>
        <mxCell id="C-vyLk0tnHw3VtMMgP7b-8" value="customer_id int NOT NULL" style="shape=partialRectangle;overflow=hidden;connectable=0;fillColor=none;top=0;left=0;bottom=0;right=0;align=left;spacingLeft=6;" parent="C-vyLk0tnHw3VtMMgP7b-6" vertex="1">
          <mxGeometry x="30" width="220" height="30" as="geometry">
            <mxRectangle width="220" height="30" as="alternateBounds" />
          </mxGeometry>
        </mxCell>
        <mxCell id="C-vyLk0tnHw3VtMMgP7b-9" value="" style="shape=partialRectangle;collapsible=0;dropTarget=0;pointerEvents=0;fillColor=none;points=[[0,0.5],[1,0.5]];portConstraint=eastwest;top=0;left=0;right=0;bottom=0;" parent="C-vyLk0tnHw3VtMMgP7b-2" vertex="1">
          <mxGeometry y="90" width="250" height="30" as="geometry" />
        </mxCell>
        <mxCell id="C-vyLk0tnHw3VtMMgP7b-10" value="" style="shape=partialRectangle;overflow=hidden;connectable=0;fillColor=none;top=0;left=0;bottom=0;right=0;" parent="C-vyLk0tnHw3VtMMgP7b-9" vertex="1">
          <mxGeometry width="30" height="30" as="geometry">
            <mxRectangle width="30" height="30" as="alternateBounds" />
          </mxGeometry>
        </mxCell>
        <mxCell id="C-vyLk0tnHw3VtMMgP7b-11" value="order_date date NOT NULL" style="shape=partialRectangle;overflow=hidden;connectable=0;fillColor=none;top=0;left=0;bottom=0;right=0;align=left;spacingLeft=6;" parent="C-vyLk0tnHw3VtMMgP7b-9" vertex="1">
          <mxGeometry x="30" width="220" height="30" as="geometry">
            <mxRectangle width="220" height="30" as="alternateBounds" />
          </mxGeometry>
        </mxCell>
        <mxCell id="C-vyLk0tnHw3VtMMgP7b-13" value="Shipments" style="shape=table;startSize=30;container=1;collapsible=1;childLayout=tableLayout;fixedRows=1;rowLines=0;fontStyle=1;align=center;resizeLast=1;" parent="1" vertex="1" collapsed="1">
          <mxGeometry x="3660" y="2160" width="100" height="30" as="geometry">
            <mxRectangle x="1300" y="750" width="250" height="130" as="alternateBounds" />
          </mxGeometry>
        </mxCell>
        <mxCell id="C-vyLk0tnHw3VtMMgP7b-14" value="" style="shape=partialRectangle;collapsible=0;dropTarget=0;pointerEvents=0;fillColor=none;points=[[0,0.5],[1,0.5]];portConstraint=eastwest;top=0;left=0;right=0;bottom=1;" parent="C-vyLk0tnHw3VtMMgP7b-13" vertex="1">
          <mxGeometry y="30" width="250" height="30" as="geometry" />
        </mxCell>
        <mxCell id="C-vyLk0tnHw3VtMMgP7b-15" value="PK" style="shape=partialRectangle;overflow=hidden;connectable=0;fillColor=none;top=0;left=0;bottom=0;right=0;fontStyle=1;" parent="C-vyLk0tnHw3VtMMgP7b-14" vertex="1">
          <mxGeometry width="30" height="30" as="geometry">
            <mxRectangle width="30" height="30" as="alternateBounds" />
          </mxGeometry>
        </mxCell>
        <mxCell id="C-vyLk0tnHw3VtMMgP7b-16" value="shipment_id int NOT NULL " style="shape=partialRectangle;overflow=hidden;connectable=0;fillColor=none;top=0;left=0;bottom=0;right=0;align=left;spacingLeft=6;fontStyle=5;" parent="C-vyLk0tnHw3VtMMgP7b-14" vertex="1">
          <mxGeometry x="30" width="220" height="30" as="geometry">
            <mxRectangle width="220" height="30" as="alternateBounds" />
          </mxGeometry>
        </mxCell>
        <mxCell id="C-vyLk0tnHw3VtMMgP7b-17" value="" style="shape=partialRectangle;collapsible=0;dropTarget=0;pointerEvents=0;fillColor=none;points=[[0,0.5],[1,0.5]];portConstraint=eastwest;top=0;left=0;right=0;bottom=0;" parent="C-vyLk0tnHw3VtMMgP7b-13" vertex="1">
          <mxGeometry y="60" width="250" height="30" as="geometry" />
        </mxCell>
        <mxCell id="C-vyLk0tnHw3VtMMgP7b-18" value="FK1" style="shape=partialRectangle;overflow=hidden;connectable=0;fillColor=none;top=0;left=0;bottom=0;right=0;" parent="C-vyLk0tnHw3VtMMgP7b-17" vertex="1">
          <mxGeometry width="30" height="30" as="geometry">
            <mxRectangle width="30" height="30" as="alternateBounds" />
          </mxGeometry>
        </mxCell>
        <mxCell id="C-vyLk0tnHw3VtMMgP7b-19" value="order_id int NOT NULL" style="shape=partialRectangle;overflow=hidden;connectable=0;fillColor=none;top=0;left=0;bottom=0;right=0;align=left;spacingLeft=6;" parent="C-vyLk0tnHw3VtMMgP7b-17" vertex="1">
          <mxGeometry x="30" width="220" height="30" as="geometry">
            <mxRectangle width="220" height="30" as="alternateBounds" />
          </mxGeometry>
        </mxCell>
        <mxCell id="C-vyLk0tnHw3VtMMgP7b-20" value="" style="shape=partialRectangle;collapsible=0;dropTarget=0;pointerEvents=0;fillColor=none;points=[[0,0.5],[1,0.5]];portConstraint=eastwest;top=0;left=0;right=0;bottom=0;" parent="C-vyLk0tnHw3VtMMgP7b-13" vertex="1">
          <mxGeometry y="90" width="250" height="30" as="geometry" />
        </mxCell>
        <mxCell id="C-vyLk0tnHw3VtMMgP7b-21" value="" style="shape=partialRectangle;overflow=hidden;connectable=0;fillColor=none;top=0;left=0;bottom=0;right=0;" parent="C-vyLk0tnHw3VtMMgP7b-20" vertex="1">
          <mxGeometry width="30" height="30" as="geometry">
            <mxRectangle width="30" height="30" as="alternateBounds" />
          </mxGeometry>
        </mxCell>
        <mxCell id="C-vyLk0tnHw3VtMMgP7b-22" value="shipment_date date NOT NULL" style="shape=partialRectangle;overflow=hidden;connectable=0;fillColor=none;top=0;left=0;bottom=0;right=0;align=left;spacingLeft=6;" parent="C-vyLk0tnHw3VtMMgP7b-20" vertex="1">
          <mxGeometry x="30" width="220" height="30" as="geometry">
            <mxRectangle width="220" height="30" as="alternateBounds" />
          </mxGeometry>
        </mxCell>
        <mxCell id="C-vyLk0tnHw3VtMMgP7b-23" value="Customers" style="shape=table;startSize=30;container=1;collapsible=1;childLayout=tableLayout;fixedRows=1;rowLines=0;fontStyle=1;align=center;resizeLast=1;" parent="1" vertex="1" collapsed="1">
          <mxGeometry x="3660" y="2120" width="100" height="30" as="geometry">
            <mxRectangle x="830" y="820" width="250" height="100" as="alternateBounds" />
          </mxGeometry>
        </mxCell>
        <mxCell id="C-vyLk0tnHw3VtMMgP7b-24" value="" style="shape=partialRectangle;collapsible=0;dropTarget=0;pointerEvents=0;fillColor=none;points=[[0,0.5],[1,0.5]];portConstraint=eastwest;top=0;left=0;right=0;bottom=1;" parent="C-vyLk0tnHw3VtMMgP7b-23" vertex="1">
          <mxGeometry y="30" width="250" height="30" as="geometry" />
        </mxCell>
        <mxCell id="C-vyLk0tnHw3VtMMgP7b-25" value="PK" style="shape=partialRectangle;overflow=hidden;connectable=0;fillColor=none;top=0;left=0;bottom=0;right=0;fontStyle=1;" parent="C-vyLk0tnHw3VtMMgP7b-24" vertex="1">
          <mxGeometry width="30" height="30" as="geometry">
            <mxRectangle width="30" height="30" as="alternateBounds" />
          </mxGeometry>
        </mxCell>
        <mxCell id="C-vyLk0tnHw3VtMMgP7b-26" value="customer_id int NOT NULL " style="shape=partialRectangle;overflow=hidden;connectable=0;fillColor=none;top=0;left=0;bottom=0;right=0;align=left;spacingLeft=6;fontStyle=5;" parent="C-vyLk0tnHw3VtMMgP7b-24" vertex="1">
          <mxGeometry x="30" width="220" height="30" as="geometry">
            <mxRectangle width="220" height="30" as="alternateBounds" />
          </mxGeometry>
        </mxCell>
        <mxCell id="C-vyLk0tnHw3VtMMgP7b-27" value="" style="shape=partialRectangle;collapsible=0;dropTarget=0;pointerEvents=0;fillColor=none;points=[[0,0.5],[1,0.5]];portConstraint=eastwest;top=0;left=0;right=0;bottom=0;" parent="C-vyLk0tnHw3VtMMgP7b-23" vertex="1">
          <mxGeometry y="60" width="250" height="30" as="geometry" />
        </mxCell>
        <mxCell id="C-vyLk0tnHw3VtMMgP7b-28" value="" style="shape=partialRectangle;overflow=hidden;connectable=0;fillColor=none;top=0;left=0;bottom=0;right=0;" parent="C-vyLk0tnHw3VtMMgP7b-27" vertex="1">
          <mxGeometry width="30" height="30" as="geometry">
            <mxRectangle width="30" height="30" as="alternateBounds" />
          </mxGeometry>
        </mxCell>
        <mxCell id="C-vyLk0tnHw3VtMMgP7b-29" value="customer_name char(50) NOT NULL" style="shape=partialRectangle;overflow=hidden;connectable=0;fillColor=none;top=0;left=0;bottom=0;right=0;align=left;spacingLeft=6;" parent="C-vyLk0tnHw3VtMMgP7b-27" vertex="1">
          <mxGeometry x="30" width="220" height="30" as="geometry">
            <mxRectangle width="220" height="30" as="alternateBounds" />
          </mxGeometry>
        </mxCell>
        <mxCell id="BobY1lfWQGTWMVGo28No-1" value="`proc_assigned_type`" style="shape=table;startSize=30;container=1;collapsible=1;childLayout=tableLayout;fixedRows=1;rowLines=0;fontStyle=1;align=center;resizeLast=1;" vertex="1" parent="1">
          <mxGeometry x="790" y="380" width="380" height="250" as="geometry">
            <mxRectangle x="-840" y="30" width="160" height="30" as="alternateBounds" />
          </mxGeometry>
        </mxCell>
        <mxCell id="BobY1lfWQGTWMVGo28No-2" value="" style="shape=tableRow;horizontal=0;startSize=0;swimlaneHead=0;swimlaneBody=0;fillColor=none;collapsible=0;dropTarget=0;points=[[0,0.5],[1,0.5]];portConstraint=eastwest;strokeColor=inherit;top=0;left=0;right=0;bottom=1;" vertex="1" parent="BobY1lfWQGTWMVGo28No-1">
          <mxGeometry y="30" width="380" height="30" as="geometry" />
        </mxCell>
        <mxCell id="BobY1lfWQGTWMVGo28No-3" value="PK" style="shape=partialRectangle;overflow=hidden;connectable=0;fillColor=none;strokeColor=inherit;top=0;left=0;bottom=0;right=0;fontStyle=1;" vertex="1" parent="BobY1lfWQGTWMVGo28No-2">
          <mxGeometry width="30" height="30" as="geometry">
            <mxRectangle width="30" height="30" as="alternateBounds" />
          </mxGeometry>
        </mxCell>
        <mxCell id="BobY1lfWQGTWMVGo28No-4" value="`id` bigint(20) NOT NULL AUTO_INCREMENT" style="shape=partialRectangle;overflow=hidden;connectable=0;fillColor=none;align=left;strokeColor=inherit;top=0;left=0;bottom=0;right=0;spacingLeft=6;fontStyle=5;" vertex="1" parent="BobY1lfWQGTWMVGo28No-2">
          <mxGeometry x="30" width="350" height="30" as="geometry">
            <mxRectangle width="350" height="30" as="alternateBounds" />
          </mxGeometry>
        </mxCell>
        <mxCell id="BobY1lfWQGTWMVGo28No-5" value="" style="shape=tableRow;horizontal=0;startSize=0;swimlaneHead=0;swimlaneBody=0;fillColor=none;collapsible=0;dropTarget=0;points=[[0,0.5],[1,0.5]];portConstraint=eastwest;strokeColor=inherit;top=0;left=0;right=0;bottom=0;" vertex="1" parent="BobY1lfWQGTWMVGo28No-1">
          <mxGeometry y="60" width="380" height="30" as="geometry" />
        </mxCell>
        <mxCell id="BobY1lfWQGTWMVGo28No-6" value="" style="shape=partialRectangle;overflow=hidden;connectable=0;fillColor=none;strokeColor=inherit;top=0;left=0;bottom=0;right=0;" vertex="1" parent="BobY1lfWQGTWMVGo28No-5">
          <mxGeometry width="30" height="30" as="geometry">
            <mxRectangle width="30" height="30" as="alternateBounds" />
          </mxGeometry>
        </mxCell>
        <mxCell id="BobY1lfWQGTWMVGo28No-7" value="`proc_key` varchar(255)  COMMENT &#39;流程定义key&#39;" style="shape=partialRectangle;overflow=hidden;connectable=0;fillColor=none;align=left;strokeColor=inherit;top=0;left=0;bottom=0;right=0;spacingLeft=6;" vertex="1" parent="BobY1lfWQGTWMVGo28No-5">
          <mxGeometry x="30" width="350" height="30" as="geometry">
            <mxRectangle width="350" height="30" as="alternateBounds" />
          </mxGeometry>
        </mxCell>
        <mxCell id="BobY1lfWQGTWMVGo28No-8" value="" style="shape=tableRow;horizontal=0;startSize=0;swimlaneHead=0;swimlaneBody=0;fillColor=none;collapsible=0;dropTarget=0;points=[[0,0.5],[1,0.5]];portConstraint=eastwest;strokeColor=inherit;top=0;left=0;right=0;bottom=0;" vertex="1" parent="BobY1lfWQGTWMVGo28No-1">
          <mxGeometry y="90" width="380" height="30" as="geometry" />
        </mxCell>
        <mxCell id="BobY1lfWQGTWMVGo28No-9" value="" style="shape=partialRectangle;overflow=hidden;connectable=0;fillColor=none;strokeColor=inherit;top=0;left=0;bottom=0;right=0;" vertex="1" parent="BobY1lfWQGTWMVGo28No-8">
          <mxGeometry width="30" height="30" as="geometry">
            <mxRectangle width="30" height="30" as="alternateBounds" />
          </mxGeometry>
        </mxCell>
        <mxCell id="BobY1lfWQGTWMVGo28No-10" value="`proc_publish_key` varchar(255)  COMMENT &#39;流程发布key&#39;" style="shape=partialRectangle;overflow=hidden;connectable=0;fillColor=none;align=left;strokeColor=inherit;top=0;left=0;bottom=0;right=0;spacingLeft=6;" vertex="1" parent="BobY1lfWQGTWMVGo28No-8">
          <mxGeometry x="30" width="350" height="30" as="geometry">
            <mxRectangle width="350" height="30" as="alternateBounds" />
          </mxGeometry>
        </mxCell>
        <mxCell id="BobY1lfWQGTWMVGo28No-11" value="" style="shape=tableRow;horizontal=0;startSize=0;swimlaneHead=0;swimlaneBody=0;fillColor=none;collapsible=0;dropTarget=0;points=[[0,0.5],[1,0.5]];portConstraint=eastwest;strokeColor=inherit;top=0;left=0;right=0;bottom=0;" vertex="1" parent="BobY1lfWQGTWMVGo28No-1">
          <mxGeometry y="120" width="380" height="30" as="geometry" />
        </mxCell>
        <mxCell id="BobY1lfWQGTWMVGo28No-12" value="" style="shape=partialRectangle;overflow=hidden;connectable=0;fillColor=none;strokeColor=inherit;top=0;left=0;bottom=0;right=0;" vertex="1" parent="BobY1lfWQGTWMVGo28No-11">
          <mxGeometry width="30" height="30" as="geometry">
            <mxRectangle width="30" height="30" as="alternateBounds" />
          </mxGeometry>
        </mxCell>
        <mxCell id="BobY1lfWQGTWMVGo28No-13" value="`proc_node_key` varchar(255)  COMMENT &#39;流程定义节点key&#39;" style="shape=partialRectangle;overflow=hidden;connectable=0;fillColor=none;align=left;strokeColor=inherit;top=0;left=0;bottom=0;right=0;spacingLeft=6;" vertex="1" parent="BobY1lfWQGTWMVGo28No-11">
          <mxGeometry x="30" width="350" height="30" as="geometry">
            <mxRectangle width="350" height="30" as="alternateBounds" />
          </mxGeometry>
        </mxCell>
        <mxCell id="BobY1lfWQGTWMVGo28No-14" value="" style="shape=tableRow;horizontal=0;startSize=0;swimlaneHead=0;swimlaneBody=0;fillColor=none;collapsible=0;dropTarget=0;points=[[0,0.5],[1,0.5]];portConstraint=eastwest;strokeColor=inherit;top=0;left=0;right=0;bottom=0;" vertex="1" parent="BobY1lfWQGTWMVGo28No-1">
          <mxGeometry y="150" width="380" height="30" as="geometry" />
        </mxCell>
        <mxCell id="BobY1lfWQGTWMVGo28No-15" value="" style="shape=partialRectangle;overflow=hidden;connectable=0;fillColor=none;strokeColor=inherit;top=0;left=0;bottom=0;right=0;" vertex="1" parent="BobY1lfWQGTWMVGo28No-14">
          <mxGeometry width="30" height="30" as="geometry">
            <mxRectangle width="30" height="30" as="alternateBounds" />
          </mxGeometry>
        </mxCell>
        <mxCell id="BobY1lfWQGTWMVGo28No-16" value="`expression` varchar(255)  COMMENT &#39;节点表达式&#39;" style="shape=partialRectangle;overflow=hidden;connectable=0;fillColor=none;align=left;strokeColor=inherit;top=0;left=0;bottom=0;right=0;spacingLeft=6;" vertex="1" parent="BobY1lfWQGTWMVGo28No-14">
          <mxGeometry x="30" width="350" height="30" as="geometry">
            <mxRectangle width="350" height="30" as="alternateBounds" />
          </mxGeometry>
        </mxCell>
        <mxCell id="BobY1lfWQGTWMVGo28No-17" value="" style="shape=tableRow;horizontal=0;startSize=0;swimlaneHead=0;swimlaneBody=0;fillColor=none;collapsible=0;dropTarget=0;points=[[0,0.5],[1,0.5]];portConstraint=eastwest;strokeColor=inherit;top=0;left=0;right=0;bottom=0;" vertex="1" parent="BobY1lfWQGTWMVGo28No-1">
          <mxGeometry y="180" width="380" height="30" as="geometry" />
        </mxCell>
        <mxCell id="BobY1lfWQGTWMVGo28No-18" value="" style="shape=partialRectangle;overflow=hidden;connectable=0;fillColor=none;strokeColor=inherit;top=0;left=0;bottom=0;right=0;" vertex="1" parent="BobY1lfWQGTWMVGo28No-17">
          <mxGeometry width="30" height="30" as="geometry">
            <mxRectangle width="30" height="30" as="alternateBounds" />
          </mxGeometry>
        </mxCell>
        <mxCell id="BobY1lfWQGTWMVGo28No-19" value="`assigned_type` varchar(255)  COMMENT &#39;审批人类型，&#xa;1用户 2角色 3职位，多个逗号拼接&#39;" style="shape=partialRectangle;overflow=hidden;connectable=0;fillColor=none;align=left;strokeColor=inherit;top=0;left=0;bottom=0;right=0;spacingLeft=6;" vertex="1" parent="BobY1lfWQGTWMVGo28No-17">
          <mxGeometry x="30" width="350" height="30" as="geometry">
            <mxRectangle width="350" height="30" as="alternateBounds" />
          </mxGeometry>
        </mxCell>
        <mxCell id="BobY1lfWQGTWMVGo28No-20" value="`proc_definition_info`" style="shape=table;startSize=30;container=1;collapsible=1;childLayout=tableLayout;fixedRows=1;rowLines=0;fontStyle=1;align=center;resizeLast=1;" vertex="1" parent="1">
          <mxGeometry x="240" y="230" width="440" height="690" as="geometry">
            <mxRectangle x="-840" y="110" width="160" height="30" as="alternateBounds" />
          </mxGeometry>
        </mxCell>
        <mxCell id="BobY1lfWQGTWMVGo28No-21" value="" style="shape=tableRow;horizontal=0;startSize=0;swimlaneHead=0;swimlaneBody=0;fillColor=none;collapsible=0;dropTarget=0;points=[[0,0.5],[1,0.5]];portConstraint=eastwest;strokeColor=inherit;top=0;left=0;right=0;bottom=1;" vertex="1" parent="BobY1lfWQGTWMVGo28No-20">
          <mxGeometry y="30" width="440" height="30" as="geometry" />
        </mxCell>
        <mxCell id="BobY1lfWQGTWMVGo28No-22" value="PK" style="shape=partialRectangle;overflow=hidden;connectable=0;fillColor=none;strokeColor=inherit;top=0;left=0;bottom=0;right=0;fontStyle=1;" vertex="1" parent="BobY1lfWQGTWMVGo28No-21">
          <mxGeometry width="30" height="30" as="geometry">
            <mxRectangle width="30" height="30" as="alternateBounds" />
          </mxGeometry>
        </mxCell>
        <mxCell id="BobY1lfWQGTWMVGo28No-23" value="`id` bigint(20) NOT NULL AUTO_INCREMENT" style="shape=partialRectangle;overflow=hidden;connectable=0;fillColor=none;align=left;strokeColor=inherit;top=0;left=0;bottom=0;right=0;spacingLeft=6;fontStyle=5;" vertex="1" parent="BobY1lfWQGTWMVGo28No-21">
          <mxGeometry x="30" width="410" height="30" as="geometry">
            <mxRectangle width="410" height="30" as="alternateBounds" />
          </mxGeometry>
        </mxCell>
        <mxCell id="BobY1lfWQGTWMVGo28No-24" value="" style="shape=tableRow;horizontal=0;startSize=0;swimlaneHead=0;swimlaneBody=0;fillColor=none;collapsible=0;dropTarget=0;points=[[0,0.5],[1,0.5]];portConstraint=eastwest;strokeColor=inherit;top=0;left=0;right=0;bottom=0;" vertex="1" parent="BobY1lfWQGTWMVGo28No-20">
          <mxGeometry y="60" width="440" height="30" as="geometry" />
        </mxCell>
        <mxCell id="BobY1lfWQGTWMVGo28No-25" value="" style="shape=partialRectangle;overflow=hidden;connectable=0;fillColor=none;strokeColor=inherit;top=0;left=0;bottom=0;right=0;" vertex="1" parent="BobY1lfWQGTWMVGo28No-24">
          <mxGeometry width="30" height="30" as="geometry">
            <mxRectangle width="30" height="30" as="alternateBounds" />
          </mxGeometry>
        </mxCell>
        <mxCell id="BobY1lfWQGTWMVGo28No-26" value="`main_id` bigint(20)  COMMENT &#39;本表的id，历史记录关联主信息&#39;" style="shape=partialRectangle;overflow=hidden;connectable=0;fillColor=none;align=left;strokeColor=inherit;top=0;left=0;bottom=0;right=0;spacingLeft=6;" vertex="1" parent="BobY1lfWQGTWMVGo28No-24">
          <mxGeometry x="30" width="410" height="30" as="geometry">
            <mxRectangle width="410" height="30" as="alternateBounds" />
          </mxGeometry>
        </mxCell>
        <mxCell id="BobY1lfWQGTWMVGo28No-27" value="" style="shape=tableRow;horizontal=0;startSize=0;swimlaneHead=0;swimlaneBody=0;fillColor=none;collapsible=0;dropTarget=0;points=[[0,0.5],[1,0.5]];portConstraint=eastwest;strokeColor=inherit;top=0;left=0;right=0;bottom=0;" vertex="1" parent="BobY1lfWQGTWMVGo28No-20">
          <mxGeometry y="90" width="440" height="30" as="geometry" />
        </mxCell>
        <mxCell id="BobY1lfWQGTWMVGo28No-28" value="" style="shape=partialRectangle;overflow=hidden;connectable=0;fillColor=none;strokeColor=inherit;top=0;left=0;bottom=0;right=0;" vertex="1" parent="BobY1lfWQGTWMVGo28No-27">
          <mxGeometry width="30" height="30" as="geometry">
            <mxRectangle width="30" height="30" as="alternateBounds" />
          </mxGeometry>
        </mxCell>
        <mxCell id="BobY1lfWQGTWMVGo28No-29" value="`proc_name` varchar(255)  COMMENT &#39;流程名称&#39;" style="shape=partialRectangle;overflow=hidden;connectable=0;fillColor=none;align=left;strokeColor=inherit;top=0;left=0;bottom=0;right=0;spacingLeft=6;" vertex="1" parent="BobY1lfWQGTWMVGo28No-27">
          <mxGeometry x="30" width="410" height="30" as="geometry">
            <mxRectangle width="410" height="30" as="alternateBounds" />
          </mxGeometry>
        </mxCell>
        <mxCell id="BobY1lfWQGTWMVGo28No-30" value="" style="shape=tableRow;horizontal=0;startSize=0;swimlaneHead=0;swimlaneBody=0;fillColor=none;collapsible=0;dropTarget=0;points=[[0,0.5],[1,0.5]];portConstraint=eastwest;strokeColor=inherit;top=0;left=0;right=0;bottom=0;" vertex="1" parent="BobY1lfWQGTWMVGo28No-20">
          <mxGeometry y="120" width="440" height="30" as="geometry" />
        </mxCell>
        <mxCell id="BobY1lfWQGTWMVGo28No-31" value="" style="shape=partialRectangle;overflow=hidden;connectable=0;fillColor=none;strokeColor=inherit;top=0;left=0;bottom=0;right=0;" vertex="1" parent="BobY1lfWQGTWMVGo28No-30">
          <mxGeometry width="30" height="30" as="geometry">
            <mxRectangle width="30" height="30" as="alternateBounds" />
          </mxGeometry>
        </mxCell>
        <mxCell id="BobY1lfWQGTWMVGo28No-32" value="`proc_svg` text  COMMENT &#39;流程图片&#39;" style="shape=partialRectangle;overflow=hidden;connectable=0;fillColor=none;align=left;strokeColor=inherit;top=0;left=0;bottom=0;right=0;spacingLeft=6;" vertex="1" parent="BobY1lfWQGTWMVGo28No-30">
          <mxGeometry x="30" width="410" height="30" as="geometry">
            <mxRectangle width="410" height="30" as="alternateBounds" />
          </mxGeometry>
        </mxCell>
        <mxCell id="BobY1lfWQGTWMVGo28No-33" value="" style="shape=tableRow;horizontal=0;startSize=0;swimlaneHead=0;swimlaneBody=0;fillColor=none;collapsible=0;dropTarget=0;points=[[0,0.5],[1,0.5]];portConstraint=eastwest;strokeColor=inherit;top=0;left=0;right=0;bottom=0;" vertex="1" parent="BobY1lfWQGTWMVGo28No-20">
          <mxGeometry y="150" width="440" height="30" as="geometry" />
        </mxCell>
        <mxCell id="BobY1lfWQGTWMVGo28No-34" value="" style="shape=partialRectangle;overflow=hidden;connectable=0;fillColor=none;strokeColor=inherit;top=0;left=0;bottom=0;right=0;" vertex="1" parent="BobY1lfWQGTWMVGo28No-33">
          <mxGeometry width="30" height="30" as="geometry">
            <mxRectangle width="30" height="30" as="alternateBounds" />
          </mxGeometry>
        </mxCell>
        <mxCell id="BobY1lfWQGTWMVGo28No-35" value="`business_type` int(11) NOT NULL COMMENT &#39;业务类型&#39;" style="shape=partialRectangle;overflow=hidden;connectable=0;fillColor=none;align=left;strokeColor=inherit;top=0;left=0;bottom=0;right=0;spacingLeft=6;" vertex="1" parent="BobY1lfWQGTWMVGo28No-33">
          <mxGeometry x="30" width="410" height="30" as="geometry">
            <mxRectangle width="410" height="30" as="alternateBounds" />
          </mxGeometry>
        </mxCell>
        <mxCell id="BobY1lfWQGTWMVGo28No-36" value="" style="shape=tableRow;horizontal=0;startSize=0;swimlaneHead=0;swimlaneBody=0;fillColor=none;collapsible=0;dropTarget=0;points=[[0,0.5],[1,0.5]];portConstraint=eastwest;strokeColor=inherit;top=0;left=0;right=0;bottom=0;" vertex="1" parent="BobY1lfWQGTWMVGo28No-20">
          <mxGeometry y="180" width="440" height="30" as="geometry" />
        </mxCell>
        <mxCell id="BobY1lfWQGTWMVGo28No-37" value="" style="shape=partialRectangle;overflow=hidden;connectable=0;fillColor=none;strokeColor=inherit;top=0;left=0;bottom=0;right=0;" vertex="1" parent="BobY1lfWQGTWMVGo28No-36">
          <mxGeometry width="30" height="30" as="geometry">
            <mxRectangle width="30" height="30" as="alternateBounds" />
          </mxGeometry>
        </mxCell>
        <mxCell id="BobY1lfWQGTWMVGo28No-38" value="`template_id` bigint(20)  COMMENT &#39;关联模板id&#39;" style="shape=partialRectangle;overflow=hidden;connectable=0;fillColor=none;align=left;strokeColor=inherit;top=0;left=0;bottom=0;right=0;spacingLeft=6;" vertex="1" parent="BobY1lfWQGTWMVGo28No-36">
          <mxGeometry x="30" width="410" height="30" as="geometry">
            <mxRectangle width="410" height="30" as="alternateBounds" />
          </mxGeometry>
        </mxCell>
        <mxCell id="BobY1lfWQGTWMVGo28No-39" value="" style="shape=tableRow;horizontal=0;startSize=0;swimlaneHead=0;swimlaneBody=0;fillColor=none;collapsible=0;dropTarget=0;points=[[0,0.5],[1,0.5]];portConstraint=eastwest;strokeColor=inherit;top=0;left=0;right=0;bottom=0;" vertex="1" parent="BobY1lfWQGTWMVGo28No-20">
          <mxGeometry y="210" width="440" height="30" as="geometry" />
        </mxCell>
        <mxCell id="BobY1lfWQGTWMVGo28No-40" value="" style="shape=partialRectangle;overflow=hidden;connectable=0;fillColor=none;strokeColor=inherit;top=0;left=0;bottom=0;right=0;" vertex="1" parent="BobY1lfWQGTWMVGo28No-39">
          <mxGeometry width="30" height="30" as="geometry">
            <mxRectangle width="30" height="30" as="alternateBounds" />
          </mxGeometry>
        </mxCell>
        <mxCell id="BobY1lfWQGTWMVGo28No-41" value="`proc_key` varchar(255)   COMMENT &#39;流程定义key&#39;" style="shape=partialRectangle;overflow=hidden;connectable=0;fillColor=none;align=left;strokeColor=inherit;top=0;left=0;bottom=0;right=0;spacingLeft=6;" vertex="1" parent="BobY1lfWQGTWMVGo28No-39">
          <mxGeometry x="30" width="410" height="30" as="geometry">
            <mxRectangle width="410" height="30" as="alternateBounds" />
          </mxGeometry>
        </mxCell>
        <mxCell id="BobY1lfWQGTWMVGo28No-42" value="" style="shape=tableRow;horizontal=0;startSize=0;swimlaneHead=0;swimlaneBody=0;fillColor=none;collapsible=0;dropTarget=0;points=[[0,0.5],[1,0.5]];portConstraint=eastwest;strokeColor=inherit;top=0;left=0;right=0;bottom=0;" vertex="1" parent="BobY1lfWQGTWMVGo28No-20">
          <mxGeometry y="240" width="440" height="30" as="geometry" />
        </mxCell>
        <mxCell id="BobY1lfWQGTWMVGo28No-43" value="" style="shape=partialRectangle;overflow=hidden;connectable=0;fillColor=none;strokeColor=inherit;top=0;left=0;bottom=0;right=0;" vertex="1" parent="BobY1lfWQGTWMVGo28No-42">
          <mxGeometry width="30" height="30" as="geometry">
            <mxRectangle width="30" height="30" as="alternateBounds" />
          </mxGeometry>
        </mxCell>
        <mxCell id="BobY1lfWQGTWMVGo28No-44" value="`proc_publish_key` varchar(255)   COMMENT &#39;流程发布key&#39;" style="shape=partialRectangle;overflow=hidden;connectable=0;fillColor=none;align=left;strokeColor=inherit;top=0;left=0;bottom=0;right=0;spacingLeft=6;" vertex="1" parent="BobY1lfWQGTWMVGo28No-42">
          <mxGeometry x="30" width="410" height="30" as="geometry">
            <mxRectangle width="410" height="30" as="alternateBounds" />
          </mxGeometry>
        </mxCell>
        <mxCell id="BobY1lfWQGTWMVGo28No-45" value="" style="shape=tableRow;horizontal=0;startSize=0;swimlaneHead=0;swimlaneBody=0;fillColor=none;collapsible=0;dropTarget=0;points=[[0,0.5],[1,0.5]];portConstraint=eastwest;strokeColor=inherit;top=0;left=0;right=0;bottom=0;" vertex="1" parent="BobY1lfWQGTWMVGo28No-20">
          <mxGeometry y="270" width="440" height="30" as="geometry" />
        </mxCell>
        <mxCell id="BobY1lfWQGTWMVGo28No-46" value="" style="shape=partialRectangle;overflow=hidden;connectable=0;fillColor=none;strokeColor=inherit;top=0;left=0;bottom=0;right=0;" vertex="1" parent="BobY1lfWQGTWMVGo28No-45">
          <mxGeometry width="30" height="30" as="geometry">
            <mxRectangle width="30" height="30" as="alternateBounds" />
          </mxGeometry>
        </mxCell>
        <mxCell id="BobY1lfWQGTWMVGo28No-47" value="`proc_version` int(11)  COMMENT &#39;版本号&#39;" style="shape=partialRectangle;overflow=hidden;connectable=0;fillColor=none;align=left;strokeColor=inherit;top=0;left=0;bottom=0;right=0;spacingLeft=6;" vertex="1" parent="BobY1lfWQGTWMVGo28No-45">
          <mxGeometry x="30" width="410" height="30" as="geometry">
            <mxRectangle width="410" height="30" as="alternateBounds" />
          </mxGeometry>
        </mxCell>
        <mxCell id="BobY1lfWQGTWMVGo28No-48" value="" style="shape=tableRow;horizontal=0;startSize=0;swimlaneHead=0;swimlaneBody=0;fillColor=none;collapsible=0;dropTarget=0;points=[[0,0.5],[1,0.5]];portConstraint=eastwest;strokeColor=inherit;top=0;left=0;right=0;bottom=0;" vertex="1" parent="BobY1lfWQGTWMVGo28No-20">
          <mxGeometry y="300" width="440" height="30" as="geometry" />
        </mxCell>
        <mxCell id="BobY1lfWQGTWMVGo28No-49" value="" style="shape=partialRectangle;overflow=hidden;connectable=0;fillColor=none;strokeColor=inherit;top=0;left=0;bottom=0;right=0;" vertex="1" parent="BobY1lfWQGTWMVGo28No-48">
          <mxGeometry width="30" height="30" as="geometry">
            <mxRectangle width="30" height="30" as="alternateBounds" />
          </mxGeometry>
        </mxCell>
        <mxCell id="BobY1lfWQGTWMVGo28No-50" value="`adapter_limit_name` varchar(255)   COMMENT &#39;适用人群名称&#39;" style="shape=partialRectangle;overflow=hidden;connectable=0;fillColor=none;align=left;strokeColor=inherit;top=0;left=0;bottom=0;right=0;spacingLeft=6;" vertex="1" parent="BobY1lfWQGTWMVGo28No-48">
          <mxGeometry x="30" width="410" height="30" as="geometry">
            <mxRectangle width="410" height="30" as="alternateBounds" />
          </mxGeometry>
        </mxCell>
        <mxCell id="BobY1lfWQGTWMVGo28No-51" value="" style="shape=tableRow;horizontal=0;startSize=0;swimlaneHead=0;swimlaneBody=0;fillColor=none;collapsible=0;dropTarget=0;points=[[0,0.5],[1,0.5]];portConstraint=eastwest;strokeColor=inherit;top=0;left=0;right=0;bottom=0;" vertex="1" parent="BobY1lfWQGTWMVGo28No-20">
          <mxGeometry y="330" width="440" height="30" as="geometry" />
        </mxCell>
        <mxCell id="BobY1lfWQGTWMVGo28No-52" value="" style="shape=partialRectangle;overflow=hidden;connectable=0;fillColor=none;strokeColor=inherit;top=0;left=0;bottom=0;right=0;" vertex="1" parent="BobY1lfWQGTWMVGo28No-51">
          <mxGeometry width="30" height="30" as="geometry">
            <mxRectangle width="30" height="30" as="alternateBounds" />
          </mxGeometry>
        </mxCell>
        <mxCell id="BobY1lfWQGTWMVGo28No-53" value="`adapter_limit` varchar(255)   COMMENT &#39;适用人群，1分公司经理 2区域总监 3门店经理 4店长&#39;" style="shape=partialRectangle;overflow=hidden;connectable=0;fillColor=none;align=left;strokeColor=inherit;top=0;left=0;bottom=0;right=0;spacingLeft=6;" vertex="1" parent="BobY1lfWQGTWMVGo28No-51">
          <mxGeometry x="30" width="410" height="30" as="geometry">
            <mxRectangle width="410" height="30" as="alternateBounds" />
          </mxGeometry>
        </mxCell>
        <mxCell id="BobY1lfWQGTWMVGo28No-54" value="" style="shape=tableRow;horizontal=0;startSize=0;swimlaneHead=0;swimlaneBody=0;fillColor=none;collapsible=0;dropTarget=0;points=[[0,0.5],[1,0.5]];portConstraint=eastwest;strokeColor=inherit;top=0;left=0;right=0;bottom=0;" vertex="1" parent="BobY1lfWQGTWMVGo28No-20">
          <mxGeometry y="360" width="440" height="30" as="geometry" />
        </mxCell>
        <mxCell id="BobY1lfWQGTWMVGo28No-55" value="" style="shape=partialRectangle;overflow=hidden;connectable=0;fillColor=none;strokeColor=inherit;top=0;left=0;bottom=0;right=0;" vertex="1" parent="BobY1lfWQGTWMVGo28No-54">
          <mxGeometry width="30" height="30" as="geometry">
            <mxRectangle width="30" height="30" as="alternateBounds" />
          </mxGeometry>
        </mxCell>
        <mxCell id="BobY1lfWQGTWMVGo28No-56" value="`company_id` varchar(255)   COMMENT &#39;分公司id&#39;" style="shape=partialRectangle;overflow=hidden;connectable=0;fillColor=none;align=left;strokeColor=inherit;top=0;left=0;bottom=0;right=0;spacingLeft=6;" vertex="1" parent="BobY1lfWQGTWMVGo28No-54">
          <mxGeometry x="30" width="410" height="30" as="geometry">
            <mxRectangle width="410" height="30" as="alternateBounds" />
          </mxGeometry>
        </mxCell>
        <mxCell id="BobY1lfWQGTWMVGo28No-57" value="" style="shape=tableRow;horizontal=0;startSize=0;swimlaneHead=0;swimlaneBody=0;fillColor=none;collapsible=0;dropTarget=0;points=[[0,0.5],[1,0.5]];portConstraint=eastwest;strokeColor=inherit;top=0;left=0;right=0;bottom=0;" vertex="1" parent="BobY1lfWQGTWMVGo28No-20">
          <mxGeometry y="390" width="440" height="30" as="geometry" />
        </mxCell>
        <mxCell id="BobY1lfWQGTWMVGo28No-58" value="" style="shape=partialRectangle;overflow=hidden;connectable=0;fillColor=none;strokeColor=inherit;top=0;left=0;bottom=0;right=0;" vertex="1" parent="BobY1lfWQGTWMVGo28No-57">
          <mxGeometry width="30" height="30" as="geometry">
            <mxRectangle width="30" height="30" as="alternateBounds" />
          </mxGeometry>
        </mxCell>
        <mxCell id="BobY1lfWQGTWMVGo28No-59" value="`company_name` varchar(255)   COMMENT &#39;分公司名称&#39;" style="shape=partialRectangle;overflow=hidden;connectable=0;fillColor=none;align=left;strokeColor=inherit;top=0;left=0;bottom=0;right=0;spacingLeft=6;" vertex="1" parent="BobY1lfWQGTWMVGo28No-57">
          <mxGeometry x="30" width="410" height="30" as="geometry">
            <mxRectangle width="410" height="30" as="alternateBounds" />
          </mxGeometry>
        </mxCell>
        <mxCell id="BobY1lfWQGTWMVGo28No-60" value="" style="shape=tableRow;horizontal=0;startSize=0;swimlaneHead=0;swimlaneBody=0;fillColor=none;collapsible=0;dropTarget=0;points=[[0,0.5],[1,0.5]];portConstraint=eastwest;strokeColor=inherit;top=0;left=0;right=0;bottom=0;" vertex="1" parent="BobY1lfWQGTWMVGo28No-20">
          <mxGeometry y="420" width="440" height="30" as="geometry" />
        </mxCell>
        <mxCell id="BobY1lfWQGTWMVGo28No-61" value="" style="shape=partialRectangle;overflow=hidden;connectable=0;fillColor=none;strokeColor=inherit;top=0;left=0;bottom=0;right=0;" vertex="1" parent="BobY1lfWQGTWMVGo28No-60">
          <mxGeometry width="30" height="30" as="geometry">
            <mxRectangle width="30" height="30" as="alternateBounds" />
          </mxGeometry>
        </mxCell>
        <mxCell id="BobY1lfWQGTWMVGo28No-62" value="`proc_state` int(11)  COMMENT &#39;流程状态，0草稿 1发布中 2停用 3删除&#39;" style="shape=partialRectangle;overflow=hidden;connectable=0;fillColor=none;align=left;strokeColor=inherit;top=0;left=0;bottom=0;right=0;spacingLeft=6;" vertex="1" parent="BobY1lfWQGTWMVGo28No-60">
          <mxGeometry x="30" width="410" height="30" as="geometry">
            <mxRectangle width="410" height="30" as="alternateBounds" />
          </mxGeometry>
        </mxCell>
        <mxCell id="BobY1lfWQGTWMVGo28No-63" value="" style="shape=tableRow;horizontal=0;startSize=0;swimlaneHead=0;swimlaneBody=0;fillColor=none;collapsible=0;dropTarget=0;points=[[0,0.5],[1,0.5]];portConstraint=eastwest;strokeColor=inherit;top=0;left=0;right=0;bottom=0;" vertex="1" parent="BobY1lfWQGTWMVGo28No-20">
          <mxGeometry y="450" width="440" height="30" as="geometry" />
        </mxCell>
        <mxCell id="BobY1lfWQGTWMVGo28No-64" value="" style="shape=partialRectangle;overflow=hidden;connectable=0;fillColor=none;strokeColor=inherit;top=0;left=0;bottom=0;right=0;" vertex="1" parent="BobY1lfWQGTWMVGo28No-63">
          <mxGeometry width="30" height="30" as="geometry">
            <mxRectangle width="30" height="30" as="alternateBounds" />
          </mxGeometry>
        </mxCell>
        <mxCell id="BobY1lfWQGTWMVGo28No-65" value="`xml_data` text  COMMENT &#39;流程xml数据&#39;" style="shape=partialRectangle;overflow=hidden;connectable=0;fillColor=none;align=left;strokeColor=inherit;top=0;left=0;bottom=0;right=0;spacingLeft=6;" vertex="1" parent="BobY1lfWQGTWMVGo28No-63">
          <mxGeometry x="30" width="410" height="30" as="geometry">
            <mxRectangle width="410" height="30" as="alternateBounds" />
          </mxGeometry>
        </mxCell>
        <mxCell id="BobY1lfWQGTWMVGo28No-66" value="" style="shape=tableRow;horizontal=0;startSize=0;swimlaneHead=0;swimlaneBody=0;fillColor=none;collapsible=0;dropTarget=0;points=[[0,0.5],[1,0.5]];portConstraint=eastwest;strokeColor=inherit;top=0;left=0;right=0;bottom=0;" vertex="1" parent="BobY1lfWQGTWMVGo28No-20">
          <mxGeometry y="480" width="440" height="30" as="geometry" />
        </mxCell>
        <mxCell id="BobY1lfWQGTWMVGo28No-67" value="" style="shape=partialRectangle;overflow=hidden;connectable=0;fillColor=none;strokeColor=inherit;top=0;left=0;bottom=0;right=0;" vertex="1" parent="BobY1lfWQGTWMVGo28No-66">
          <mxGeometry width="30" height="30" as="geometry">
            <mxRectangle width="30" height="30" as="alternateBounds" />
          </mxGeometry>
        </mxCell>
        <mxCell id="BobY1lfWQGTWMVGo28No-68" value="`description` text  COMMENT &#39;流程说明&#39;" style="shape=partialRectangle;overflow=hidden;connectable=0;fillColor=none;align=left;strokeColor=inherit;top=0;left=0;bottom=0;right=0;spacingLeft=6;" vertex="1" parent="BobY1lfWQGTWMVGo28No-66">
          <mxGeometry x="30" width="410" height="30" as="geometry">
            <mxRectangle width="410" height="30" as="alternateBounds" />
          </mxGeometry>
        </mxCell>
        <mxCell id="BobY1lfWQGTWMVGo28No-69" value="" style="shape=tableRow;horizontal=0;startSize=0;swimlaneHead=0;swimlaneBody=0;fillColor=none;collapsible=0;dropTarget=0;points=[[0,0.5],[1,0.5]];portConstraint=eastwest;strokeColor=inherit;top=0;left=0;right=0;bottom=0;" vertex="1" parent="BobY1lfWQGTWMVGo28No-20">
          <mxGeometry y="510" width="440" height="30" as="geometry" />
        </mxCell>
        <mxCell id="BobY1lfWQGTWMVGo28No-70" value="" style="shape=partialRectangle;overflow=hidden;connectable=0;fillColor=none;strokeColor=inherit;top=0;left=0;bottom=0;right=0;" vertex="1" parent="BobY1lfWQGTWMVGo28No-69">
          <mxGeometry width="30" height="30" as="geometry">
            <mxRectangle width="30" height="30" as="alternateBounds" />
          </mxGeometry>
        </mxCell>
        <mxCell id="BobY1lfWQGTWMVGo28No-71" value="`history_flag` int(255)  COMMENT &#39;标识，1当前 2历史&#39;" style="shape=partialRectangle;overflow=hidden;connectable=0;fillColor=none;align=left;strokeColor=inherit;top=0;left=0;bottom=0;right=0;spacingLeft=6;" vertex="1" parent="BobY1lfWQGTWMVGo28No-69">
          <mxGeometry x="30" width="410" height="30" as="geometry">
            <mxRectangle width="410" height="30" as="alternateBounds" />
          </mxGeometry>
        </mxCell>
        <mxCell id="BobY1lfWQGTWMVGo28No-72" value="" style="shape=tableRow;horizontal=0;startSize=0;swimlaneHead=0;swimlaneBody=0;fillColor=none;collapsible=0;dropTarget=0;points=[[0,0.5],[1,0.5]];portConstraint=eastwest;strokeColor=inherit;top=0;left=0;right=0;bottom=0;" vertex="1" parent="BobY1lfWQGTWMVGo28No-20">
          <mxGeometry y="540" width="440" height="30" as="geometry" />
        </mxCell>
        <mxCell id="BobY1lfWQGTWMVGo28No-73" value="" style="shape=partialRectangle;overflow=hidden;connectable=0;fillColor=none;strokeColor=inherit;top=0;left=0;bottom=0;right=0;" vertex="1" parent="BobY1lfWQGTWMVGo28No-72">
          <mxGeometry width="30" height="30" as="geometry">
            <mxRectangle width="30" height="30" as="alternateBounds" />
          </mxGeometry>
        </mxCell>
        <mxCell id="BobY1lfWQGTWMVGo28No-74" value="`create_by` bigint(20)  COMMENT &#39;创建人&#39;" style="shape=partialRectangle;overflow=hidden;connectable=0;fillColor=none;align=left;strokeColor=inherit;top=0;left=0;bottom=0;right=0;spacingLeft=6;" vertex="1" parent="BobY1lfWQGTWMVGo28No-72">
          <mxGeometry x="30" width="410" height="30" as="geometry">
            <mxRectangle width="410" height="30" as="alternateBounds" />
          </mxGeometry>
        </mxCell>
        <mxCell id="BobY1lfWQGTWMVGo28No-75" value="" style="shape=tableRow;horizontal=0;startSize=0;swimlaneHead=0;swimlaneBody=0;fillColor=none;collapsible=0;dropTarget=0;points=[[0,0.5],[1,0.5]];portConstraint=eastwest;strokeColor=inherit;top=0;left=0;right=0;bottom=0;" vertex="1" parent="BobY1lfWQGTWMVGo28No-20">
          <mxGeometry y="570" width="440" height="30" as="geometry" />
        </mxCell>
        <mxCell id="BobY1lfWQGTWMVGo28No-76" value="" style="shape=partialRectangle;overflow=hidden;connectable=0;fillColor=none;strokeColor=inherit;top=0;left=0;bottom=0;right=0;" vertex="1" parent="BobY1lfWQGTWMVGo28No-75">
          <mxGeometry width="30" height="30" as="geometry">
            <mxRectangle width="30" height="30" as="alternateBounds" />
          </mxGeometry>
        </mxCell>
        <mxCell id="BobY1lfWQGTWMVGo28No-77" value="`create_by_name` varchar(255)   COMMENT &#39;创建人名称&#39;" style="shape=partialRectangle;overflow=hidden;connectable=0;fillColor=none;align=left;strokeColor=inherit;top=0;left=0;bottom=0;right=0;spacingLeft=6;" vertex="1" parent="BobY1lfWQGTWMVGo28No-75">
          <mxGeometry x="30" width="410" height="30" as="geometry">
            <mxRectangle width="410" height="30" as="alternateBounds" />
          </mxGeometry>
        </mxCell>
        <mxCell id="BobY1lfWQGTWMVGo28No-78" value="" style="shape=tableRow;horizontal=0;startSize=0;swimlaneHead=0;swimlaneBody=0;fillColor=none;collapsible=0;dropTarget=0;points=[[0,0.5],[1,0.5]];portConstraint=eastwest;strokeColor=inherit;top=0;left=0;right=0;bottom=0;" vertex="1" parent="BobY1lfWQGTWMVGo28No-20">
          <mxGeometry y="600" width="440" height="30" as="geometry" />
        </mxCell>
        <mxCell id="BobY1lfWQGTWMVGo28No-79" value="" style="shape=partialRectangle;overflow=hidden;connectable=0;fillColor=none;strokeColor=inherit;top=0;left=0;bottom=0;right=0;" vertex="1" parent="BobY1lfWQGTWMVGo28No-78">
          <mxGeometry width="30" height="30" as="geometry">
            <mxRectangle width="30" height="30" as="alternateBounds" />
          </mxGeometry>
        </mxCell>
        <mxCell id="BobY1lfWQGTWMVGo28No-80" value="`deploy_time` datetime  COMMENT &#39;部署时间&#39;" style="shape=partialRectangle;overflow=hidden;connectable=0;fillColor=none;align=left;strokeColor=inherit;top=0;left=0;bottom=0;right=0;spacingLeft=6;" vertex="1" parent="BobY1lfWQGTWMVGo28No-78">
          <mxGeometry x="30" width="410" height="30" as="geometry">
            <mxRectangle width="410" height="30" as="alternateBounds" />
          </mxGeometry>
        </mxCell>
        <mxCell id="BobY1lfWQGTWMVGo28No-81" value="" style="shape=tableRow;horizontal=0;startSize=0;swimlaneHead=0;swimlaneBody=0;fillColor=none;collapsible=0;dropTarget=0;points=[[0,0.5],[1,0.5]];portConstraint=eastwest;strokeColor=inherit;top=0;left=0;right=0;bottom=0;" vertex="1" parent="BobY1lfWQGTWMVGo28No-20">
          <mxGeometry y="630" width="440" height="30" as="geometry" />
        </mxCell>
        <mxCell id="BobY1lfWQGTWMVGo28No-82" value="" style="shape=partialRectangle;overflow=hidden;connectable=0;fillColor=none;strokeColor=inherit;top=0;left=0;bottom=0;right=0;" vertex="1" parent="BobY1lfWQGTWMVGo28No-81">
          <mxGeometry width="30" height="30" as="geometry">
            <mxRectangle width="30" height="30" as="alternateBounds" />
          </mxGeometry>
        </mxCell>
        <mxCell id="BobY1lfWQGTWMVGo28No-83" value="`create_time` datetime  COMMENT &#39;创建时间&#39;" style="shape=partialRectangle;overflow=hidden;connectable=0;fillColor=none;align=left;strokeColor=inherit;top=0;left=0;bottom=0;right=0;spacingLeft=6;" vertex="1" parent="BobY1lfWQGTWMVGo28No-81">
          <mxGeometry x="30" width="410" height="30" as="geometry">
            <mxRectangle width="410" height="30" as="alternateBounds" />
          </mxGeometry>
        </mxCell>
        <mxCell id="BobY1lfWQGTWMVGo28No-84" value="" style="shape=tableRow;horizontal=0;startSize=0;swimlaneHead=0;swimlaneBody=0;fillColor=none;collapsible=0;dropTarget=0;points=[[0,0.5],[1,0.5]];portConstraint=eastwest;strokeColor=inherit;top=0;left=0;right=0;bottom=0;" vertex="1" parent="BobY1lfWQGTWMVGo28No-20">
          <mxGeometry y="660" width="440" height="30" as="geometry" />
        </mxCell>
        <mxCell id="BobY1lfWQGTWMVGo28No-85" value="" style="shape=partialRectangle;overflow=hidden;connectable=0;fillColor=none;strokeColor=inherit;top=0;left=0;bottom=0;right=0;" vertex="1" parent="BobY1lfWQGTWMVGo28No-84">
          <mxGeometry width="30" height="30" as="geometry">
            <mxRectangle width="30" height="30" as="alternateBounds" />
          </mxGeometry>
        </mxCell>
        <mxCell id="BobY1lfWQGTWMVGo28No-86" value="`update_time` datetime  COMMENT &#39;更新时间&#39;" style="shape=partialRectangle;overflow=hidden;connectable=0;fillColor=none;align=left;strokeColor=inherit;top=0;left=0;bottom=0;right=0;spacingLeft=6;" vertex="1" parent="BobY1lfWQGTWMVGo28No-84">
          <mxGeometry x="30" width="410" height="30" as="geometry">
            <mxRectangle width="410" height="30" as="alternateBounds" />
          </mxGeometry>
        </mxCell>
        <mxCell id="BobY1lfWQGTWMVGo28No-87" value="`proc_form_column`" style="shape=table;startSize=30;container=1;collapsible=1;childLayout=tableLayout;fixedRows=1;rowLines=0;fontStyle=1;align=center;resizeLast=1;" vertex="1" parent="1">
          <mxGeometry x="-770" y="350" width="370" height="420" as="geometry">
            <mxRectangle x="-760" y="330" width="160" height="30" as="alternateBounds" />
          </mxGeometry>
        </mxCell>
        <mxCell id="BobY1lfWQGTWMVGo28No-88" value="" style="shape=tableRow;horizontal=0;startSize=0;swimlaneHead=0;swimlaneBody=0;fillColor=none;collapsible=0;dropTarget=0;points=[[0,0.5],[1,0.5]];portConstraint=eastwest;strokeColor=inherit;top=0;left=0;right=0;bottom=1;" vertex="1" parent="BobY1lfWQGTWMVGo28No-87">
          <mxGeometry y="30" width="370" height="30" as="geometry" />
        </mxCell>
        <mxCell id="BobY1lfWQGTWMVGo28No-89" value="PK" style="shape=partialRectangle;overflow=hidden;connectable=0;fillColor=none;strokeColor=inherit;top=0;left=0;bottom=0;right=0;fontStyle=1;" vertex="1" parent="BobY1lfWQGTWMVGo28No-88">
          <mxGeometry width="30" height="30" as="geometry">
            <mxRectangle width="30" height="30" as="alternateBounds" />
          </mxGeometry>
        </mxCell>
        <mxCell id="BobY1lfWQGTWMVGo28No-90" value="`id` bigint(20) NOT NULL AUTO_INCREMENT" style="shape=partialRectangle;overflow=hidden;connectable=0;fillColor=none;align=left;strokeColor=inherit;top=0;left=0;bottom=0;right=0;spacingLeft=6;fontStyle=5;" vertex="1" parent="BobY1lfWQGTWMVGo28No-88">
          <mxGeometry x="30" width="340" height="30" as="geometry">
            <mxRectangle width="340" height="30" as="alternateBounds" />
          </mxGeometry>
        </mxCell>
        <mxCell id="BobY1lfWQGTWMVGo28No-91" value="" style="shape=tableRow;horizontal=0;startSize=0;swimlaneHead=0;swimlaneBody=0;fillColor=none;collapsible=0;dropTarget=0;points=[[0,0.5],[1,0.5]];portConstraint=eastwest;strokeColor=inherit;top=0;left=0;right=0;bottom=0;" vertex="1" parent="BobY1lfWQGTWMVGo28No-87">
          <mxGeometry y="60" width="370" height="30" as="geometry" />
        </mxCell>
        <mxCell id="BobY1lfWQGTWMVGo28No-92" value="" style="shape=partialRectangle;overflow=hidden;connectable=0;fillColor=none;strokeColor=inherit;top=0;left=0;bottom=0;right=0;" vertex="1" parent="BobY1lfWQGTWMVGo28No-91">
          <mxGeometry width="30" height="30" as="geometry">
            <mxRectangle width="30" height="30" as="alternateBounds" />
          </mxGeometry>
        </mxCell>
        <mxCell id="BobY1lfWQGTWMVGo28No-93" value="`main_id` bigint(20)  COMMENT &#39;proc_form_template表id&#39;" style="shape=partialRectangle;overflow=hidden;connectable=0;fillColor=none;align=left;strokeColor=inherit;top=0;left=0;bottom=0;right=0;spacingLeft=6;" vertex="1" parent="BobY1lfWQGTWMVGo28No-91">
          <mxGeometry x="30" width="340" height="30" as="geometry">
            <mxRectangle width="340" height="30" as="alternateBounds" />
          </mxGeometry>
        </mxCell>
        <mxCell id="BobY1lfWQGTWMVGo28No-94" value="" style="shape=tableRow;horizontal=0;startSize=0;swimlaneHead=0;swimlaneBody=0;fillColor=none;collapsible=0;dropTarget=0;points=[[0,0.5],[1,0.5]];portConstraint=eastwest;strokeColor=inherit;top=0;left=0;right=0;bottom=0;" vertex="1" parent="BobY1lfWQGTWMVGo28No-87">
          <mxGeometry y="90" width="370" height="30" as="geometry" />
        </mxCell>
        <mxCell id="BobY1lfWQGTWMVGo28No-95" value="" style="shape=partialRectangle;overflow=hidden;connectable=0;fillColor=none;strokeColor=inherit;top=0;left=0;bottom=0;right=0;" vertex="1" parent="BobY1lfWQGTWMVGo28No-94">
          <mxGeometry width="30" height="30" as="geometry">
            <mxRectangle width="30" height="30" as="alternateBounds" />
          </mxGeometry>
        </mxCell>
        <mxCell id="BobY1lfWQGTWMVGo28No-96" value="`zh_name` varchar(50)   COMMENT &#39;字段中文名称&#39;" style="shape=partialRectangle;overflow=hidden;connectable=0;fillColor=none;align=left;strokeColor=inherit;top=0;left=0;bottom=0;right=0;spacingLeft=6;" vertex="1" parent="BobY1lfWQGTWMVGo28No-94">
          <mxGeometry x="30" width="340" height="30" as="geometry">
            <mxRectangle width="340" height="30" as="alternateBounds" />
          </mxGeometry>
        </mxCell>
        <mxCell id="BobY1lfWQGTWMVGo28No-97" value="" style="shape=tableRow;horizontal=0;startSize=0;swimlaneHead=0;swimlaneBody=0;fillColor=none;collapsible=0;dropTarget=0;points=[[0,0.5],[1,0.5]];portConstraint=eastwest;strokeColor=inherit;top=0;left=0;right=0;bottom=0;" vertex="1" parent="BobY1lfWQGTWMVGo28No-87">
          <mxGeometry y="120" width="370" height="30" as="geometry" />
        </mxCell>
        <mxCell id="BobY1lfWQGTWMVGo28No-98" value="" style="shape=partialRectangle;overflow=hidden;connectable=0;fillColor=none;strokeColor=inherit;top=0;left=0;bottom=0;right=0;" vertex="1" parent="BobY1lfWQGTWMVGo28No-97">
          <mxGeometry width="30" height="30" as="geometry">
            <mxRectangle width="30" height="30" as="alternateBounds" />
          </mxGeometry>
        </mxCell>
        <mxCell id="BobY1lfWQGTWMVGo28No-99" value="`en_name` varchar(50)   COMMENT &#39;字段英文名称&#39;" style="shape=partialRectangle;overflow=hidden;connectable=0;fillColor=none;align=left;strokeColor=inherit;top=0;left=0;bottom=0;right=0;spacingLeft=6;" vertex="1" parent="BobY1lfWQGTWMVGo28No-97">
          <mxGeometry x="30" width="340" height="30" as="geometry">
            <mxRectangle width="340" height="30" as="alternateBounds" />
          </mxGeometry>
        </mxCell>
        <mxCell id="BobY1lfWQGTWMVGo28No-100" value="" style="shape=tableRow;horizontal=0;startSize=0;swimlaneHead=0;swimlaneBody=0;fillColor=none;collapsible=0;dropTarget=0;points=[[0,0.5],[1,0.5]];portConstraint=eastwest;strokeColor=inherit;top=0;left=0;right=0;bottom=0;" vertex="1" parent="BobY1lfWQGTWMVGo28No-87">
          <mxGeometry y="150" width="370" height="30" as="geometry" />
        </mxCell>
        <mxCell id="BobY1lfWQGTWMVGo28No-101" value="" style="shape=partialRectangle;overflow=hidden;connectable=0;fillColor=none;strokeColor=inherit;top=0;left=0;bottom=0;right=0;" vertex="1" parent="BobY1lfWQGTWMVGo28No-100">
          <mxGeometry width="30" height="30" as="geometry">
            <mxRectangle width="30" height="30" as="alternateBounds" />
          </mxGeometry>
        </mxCell>
        <mxCell id="BobY1lfWQGTWMVGo28No-102" value="`db_name` varchar(50)   COMMENT &#39;数据库列名&#39;" style="shape=partialRectangle;overflow=hidden;connectable=0;fillColor=none;align=left;strokeColor=inherit;top=0;left=0;bottom=0;right=0;spacingLeft=6;" vertex="1" parent="BobY1lfWQGTWMVGo28No-100">
          <mxGeometry x="30" width="340" height="30" as="geometry">
            <mxRectangle width="340" height="30" as="alternateBounds" />
          </mxGeometry>
        </mxCell>
        <mxCell id="BobY1lfWQGTWMVGo28No-103" value="" style="shape=tableRow;horizontal=0;startSize=0;swimlaneHead=0;swimlaneBody=0;fillColor=none;collapsible=0;dropTarget=0;points=[[0,0.5],[1,0.5]];portConstraint=eastwest;strokeColor=inherit;top=0;left=0;right=0;bottom=0;" vertex="1" parent="BobY1lfWQGTWMVGo28No-87">
          <mxGeometry y="180" width="370" height="30" as="geometry" />
        </mxCell>
        <mxCell id="BobY1lfWQGTWMVGo28No-104" value="" style="shape=partialRectangle;overflow=hidden;connectable=0;fillColor=none;strokeColor=inherit;top=0;left=0;bottom=0;right=0;" vertex="1" parent="BobY1lfWQGTWMVGo28No-103">
          <mxGeometry width="30" height="30" as="geometry">
            <mxRectangle width="30" height="30" as="alternateBounds" />
          </mxGeometry>
        </mxCell>
        <mxCell id="BobY1lfWQGTWMVGo28No-105" value="`db_type` varchar(255)   COMMENT &#39;物理类型&#39;" style="shape=partialRectangle;overflow=hidden;connectable=0;fillColor=none;align=left;strokeColor=inherit;top=0;left=0;bottom=0;right=0;spacingLeft=6;" vertex="1" parent="BobY1lfWQGTWMVGo28No-103">
          <mxGeometry x="30" width="340" height="30" as="geometry">
            <mxRectangle width="340" height="30" as="alternateBounds" />
          </mxGeometry>
        </mxCell>
        <mxCell id="BobY1lfWQGTWMVGo28No-106" value="" style="shape=tableRow;horizontal=0;startSize=0;swimlaneHead=0;swimlaneBody=0;fillColor=none;collapsible=0;dropTarget=0;points=[[0,0.5],[1,0.5]];portConstraint=eastwest;strokeColor=inherit;top=0;left=0;right=0;bottom=0;" vertex="1" parent="BobY1lfWQGTWMVGo28No-87">
          <mxGeometry y="210" width="370" height="30" as="geometry" />
        </mxCell>
        <mxCell id="BobY1lfWQGTWMVGo28No-107" value="" style="shape=partialRectangle;overflow=hidden;connectable=0;fillColor=none;strokeColor=inherit;top=0;left=0;bottom=0;right=0;" vertex="1" parent="BobY1lfWQGTWMVGo28No-106">
          <mxGeometry width="30" height="30" as="geometry">
            <mxRectangle width="30" height="30" as="alternateBounds" />
          </mxGeometry>
        </mxCell>
        <mxCell id="BobY1lfWQGTWMVGo28No-108" value="`primary_flag` int(255)  COMMENT &#39;是否主键，0否 1是&#39;" style="shape=partialRectangle;overflow=hidden;connectable=0;fillColor=none;align=left;strokeColor=inherit;top=0;left=0;bottom=0;right=0;spacingLeft=6;" vertex="1" parent="BobY1lfWQGTWMVGo28No-106">
          <mxGeometry x="30" width="340" height="30" as="geometry">
            <mxRectangle width="340" height="30" as="alternateBounds" />
          </mxGeometry>
        </mxCell>
        <mxCell id="BobY1lfWQGTWMVGo28No-109" value="" style="shape=tableRow;horizontal=0;startSize=0;swimlaneHead=0;swimlaneBody=0;fillColor=none;collapsible=0;dropTarget=0;points=[[0,0.5],[1,0.5]];portConstraint=eastwest;strokeColor=inherit;top=0;left=0;right=0;bottom=0;" vertex="1" parent="BobY1lfWQGTWMVGo28No-87">
          <mxGeometry y="240" width="370" height="30" as="geometry" />
        </mxCell>
        <mxCell id="BobY1lfWQGTWMVGo28No-110" value="" style="shape=partialRectangle;overflow=hidden;connectable=0;fillColor=none;strokeColor=inherit;top=0;left=0;bottom=0;right=0;" vertex="1" parent="BobY1lfWQGTWMVGo28No-109">
          <mxGeometry width="30" height="30" as="geometry">
            <mxRectangle width="30" height="30" as="alternateBounds" />
          </mxGeometry>
        </mxCell>
        <mxCell id="BobY1lfWQGTWMVGo28No-111" value="`empty_flag` int(255)  COMMENT &#39;数据库是否可空，0否 1是&#39;" style="shape=partialRectangle;overflow=hidden;connectable=0;fillColor=none;align=left;strokeColor=inherit;top=0;left=0;bottom=0;right=0;spacingLeft=6;" vertex="1" parent="BobY1lfWQGTWMVGo28No-109">
          <mxGeometry x="30" width="340" height="30" as="geometry">
            <mxRectangle width="340" height="30" as="alternateBounds" />
          </mxGeometry>
        </mxCell>
        <mxCell id="BobY1lfWQGTWMVGo28No-112" value="" style="shape=tableRow;horizontal=0;startSize=0;swimlaneHead=0;swimlaneBody=0;fillColor=none;collapsible=0;dropTarget=0;points=[[0,0.5],[1,0.5]];portConstraint=eastwest;strokeColor=inherit;top=0;left=0;right=0;bottom=0;" vertex="1" parent="BobY1lfWQGTWMVGo28No-87">
          <mxGeometry y="270" width="370" height="30" as="geometry" />
        </mxCell>
        <mxCell id="BobY1lfWQGTWMVGo28No-113" value="" style="shape=partialRectangle;overflow=hidden;connectable=0;fillColor=none;strokeColor=inherit;top=0;left=0;bottom=0;right=0;" vertex="1" parent="BobY1lfWQGTWMVGo28No-112">
          <mxGeometry width="30" height="30" as="geometry">
            <mxRectangle width="30" height="30" as="alternateBounds" />
          </mxGeometry>
        </mxCell>
        <mxCell id="BobY1lfWQGTWMVGo28No-114" value="`input_flag` int(255)  COMMENT &#39;表单是否必须插入，0否 1是&#39;" style="shape=partialRectangle;overflow=hidden;connectable=0;fillColor=none;align=left;strokeColor=inherit;top=0;left=0;bottom=0;right=0;spacingLeft=6;" vertex="1" parent="BobY1lfWQGTWMVGo28No-112">
          <mxGeometry x="30" width="340" height="30" as="geometry">
            <mxRectangle width="340" height="30" as="alternateBounds" />
          </mxGeometry>
        </mxCell>
        <mxCell id="BobY1lfWQGTWMVGo28No-115" value="" style="shape=tableRow;horizontal=0;startSize=0;swimlaneHead=0;swimlaneBody=0;fillColor=none;collapsible=0;dropTarget=0;points=[[0,0.5],[1,0.5]];portConstraint=eastwest;strokeColor=inherit;top=0;left=0;right=0;bottom=0;" vertex="1" parent="BobY1lfWQGTWMVGo28No-87">
          <mxGeometry y="300" width="370" height="30" as="geometry" />
        </mxCell>
        <mxCell id="BobY1lfWQGTWMVGo28No-116" value="" style="shape=partialRectangle;overflow=hidden;connectable=0;fillColor=none;strokeColor=inherit;top=0;left=0;bottom=0;right=0;" vertex="1" parent="BobY1lfWQGTWMVGo28No-115">
          <mxGeometry width="30" height="30" as="geometry">
            <mxRectangle width="30" height="30" as="alternateBounds" />
          </mxGeometry>
        </mxCell>
        <mxCell id="BobY1lfWQGTWMVGo28No-117" value="`edit_flag` int(255)  COMMENT &#39;表单是否可编辑，0否 1是&#39;" style="shape=partialRectangle;overflow=hidden;connectable=0;fillColor=none;align=left;strokeColor=inherit;top=0;left=0;bottom=0;right=0;spacingLeft=6;" vertex="1" parent="BobY1lfWQGTWMVGo28No-115">
          <mxGeometry x="30" width="340" height="30" as="geometry">
            <mxRectangle width="340" height="30" as="alternateBounds" />
          </mxGeometry>
        </mxCell>
        <mxCell id="BobY1lfWQGTWMVGo28No-118" value="" style="shape=tableRow;horizontal=0;startSize=0;swimlaneHead=0;swimlaneBody=0;fillColor=none;collapsible=0;dropTarget=0;points=[[0,0.5],[1,0.5]];portConstraint=eastwest;strokeColor=inherit;top=0;left=0;right=0;bottom=0;" vertex="1" parent="BobY1lfWQGTWMVGo28No-87">
          <mxGeometry y="330" width="370" height="30" as="geometry" />
        </mxCell>
        <mxCell id="BobY1lfWQGTWMVGo28No-119" value="" style="shape=partialRectangle;overflow=hidden;connectable=0;fillColor=none;strokeColor=inherit;top=0;left=0;bottom=0;right=0;" vertex="1" parent="BobY1lfWQGTWMVGo28No-118">
          <mxGeometry width="30" height="30" as="geometry">
            <mxRectangle width="30" height="30" as="alternateBounds" />
          </mxGeometry>
        </mxCell>
        <mxCell id="BobY1lfWQGTWMVGo28No-120" value="`java_type` varchar(20)   COMMENT &#39;java类型，&#xa;Integer|String|BigdecimalLlong&#39;" style="shape=partialRectangle;overflow=hidden;connectable=0;fillColor=none;align=left;strokeColor=inherit;top=0;left=0;bottom=0;right=0;spacingLeft=6;" vertex="1" parent="BobY1lfWQGTWMVGo28No-118">
          <mxGeometry x="30" width="340" height="30" as="geometry">
            <mxRectangle width="340" height="30" as="alternateBounds" />
          </mxGeometry>
        </mxCell>
        <mxCell id="BobY1lfWQGTWMVGo28No-121" value="" style="shape=tableRow;horizontal=0;startSize=0;swimlaneHead=0;swimlaneBody=0;fillColor=none;collapsible=0;dropTarget=0;points=[[0,0.5],[1,0.5]];portConstraint=eastwest;strokeColor=inherit;top=0;left=0;right=0;bottom=0;" vertex="1" parent="BobY1lfWQGTWMVGo28No-87">
          <mxGeometry y="360" width="370" height="30" as="geometry" />
        </mxCell>
        <mxCell id="BobY1lfWQGTWMVGo28No-122" value="" style="shape=partialRectangle;overflow=hidden;connectable=0;fillColor=none;strokeColor=inherit;top=0;left=0;bottom=0;right=0;" vertex="1" parent="BobY1lfWQGTWMVGo28No-121">
          <mxGeometry width="30" height="30" as="geometry">
            <mxRectangle width="30" height="30" as="alternateBounds" />
          </mxGeometry>
        </mxCell>
        <mxCell id="BobY1lfWQGTWMVGo28No-123" value="`view_type` int(255)  COMMENT &#39;显示表单类型，&#xa;1下拉选项 2单行文本 3日期选择 4附件上传&#39;" style="shape=partialRectangle;overflow=hidden;connectable=0;fillColor=none;align=left;strokeColor=inherit;top=0;left=0;bottom=0;right=0;spacingLeft=6;" vertex="1" parent="BobY1lfWQGTWMVGo28No-121">
          <mxGeometry x="30" width="340" height="30" as="geometry">
            <mxRectangle width="340" height="30" as="alternateBounds" />
          </mxGeometry>
        </mxCell>
        <mxCell id="BobY1lfWQGTWMVGo28No-124" value="" style="shape=tableRow;horizontal=0;startSize=0;swimlaneHead=0;swimlaneBody=0;fillColor=none;collapsible=0;dropTarget=0;points=[[0,0.5],[1,0.5]];portConstraint=eastwest;strokeColor=inherit;top=0;left=0;right=0;bottom=0;" vertex="1" parent="BobY1lfWQGTWMVGo28No-87">
          <mxGeometry y="390" width="370" height="30" as="geometry" />
        </mxCell>
        <mxCell id="BobY1lfWQGTWMVGo28No-125" value="" style="shape=partialRectangle;overflow=hidden;connectable=0;fillColor=none;strokeColor=inherit;top=0;left=0;bottom=0;right=0;" vertex="1" parent="BobY1lfWQGTWMVGo28No-124">
          <mxGeometry width="30" height="30" as="geometry">
            <mxRectangle width="30" height="30" as="alternateBounds" />
          </mxGeometry>
        </mxCell>
        <mxCell id="BobY1lfWQGTWMVGo28No-126" value="`order_no` int(11)  COMMENT &#39;序号&#39;" style="shape=partialRectangle;overflow=hidden;connectable=0;fillColor=none;align=left;strokeColor=inherit;top=0;left=0;bottom=0;right=0;spacingLeft=6;" vertex="1" parent="BobY1lfWQGTWMVGo28No-124">
          <mxGeometry x="30" width="340" height="30" as="geometry">
            <mxRectangle width="340" height="30" as="alternateBounds" />
          </mxGeometry>
        </mxCell>
        <mxCell id="BobY1lfWQGTWMVGo28No-127" value="`proc_form_template`" style="shape=table;startSize=30;container=1;collapsible=1;childLayout=tableLayout;fixedRows=1;rowLines=0;fontStyle=1;align=center;resizeLast=1;" vertex="1" parent="1">
          <mxGeometry x="-280" y="380" width="360" height="150" as="geometry">
            <mxRectangle x="-630" y="30" width="160" height="30" as="alternateBounds" />
          </mxGeometry>
        </mxCell>
        <mxCell id="BobY1lfWQGTWMVGo28No-128" value="" style="shape=tableRow;horizontal=0;startSize=0;swimlaneHead=0;swimlaneBody=0;fillColor=none;collapsible=0;dropTarget=0;points=[[0,0.5],[1,0.5]];portConstraint=eastwest;strokeColor=inherit;top=0;left=0;right=0;bottom=1;" vertex="1" parent="BobY1lfWQGTWMVGo28No-127">
          <mxGeometry y="30" width="360" height="30" as="geometry" />
        </mxCell>
        <mxCell id="BobY1lfWQGTWMVGo28No-129" value="PK" style="shape=partialRectangle;overflow=hidden;connectable=0;fillColor=none;strokeColor=inherit;top=0;left=0;bottom=0;right=0;fontStyle=1;" vertex="1" parent="BobY1lfWQGTWMVGo28No-128">
          <mxGeometry width="30" height="30" as="geometry">
            <mxRectangle width="30" height="30" as="alternateBounds" />
          </mxGeometry>
        </mxCell>
        <mxCell id="BobY1lfWQGTWMVGo28No-130" value="`id` bigint(20) NOT NULL AUTO_INCREMENT" style="shape=partialRectangle;overflow=hidden;connectable=0;fillColor=none;align=left;strokeColor=inherit;top=0;left=0;bottom=0;right=0;spacingLeft=6;fontStyle=5;" vertex="1" parent="BobY1lfWQGTWMVGo28No-128">
          <mxGeometry x="30" width="330" height="30" as="geometry">
            <mxRectangle width="330" height="30" as="alternateBounds" />
          </mxGeometry>
        </mxCell>
        <mxCell id="BobY1lfWQGTWMVGo28No-131" value="" style="shape=tableRow;horizontal=0;startSize=0;swimlaneHead=0;swimlaneBody=0;fillColor=none;collapsible=0;dropTarget=0;points=[[0,0.5],[1,0.5]];portConstraint=eastwest;strokeColor=inherit;top=0;left=0;right=0;bottom=0;" vertex="1" parent="BobY1lfWQGTWMVGo28No-127">
          <mxGeometry y="60" width="360" height="30" as="geometry" />
        </mxCell>
        <mxCell id="BobY1lfWQGTWMVGo28No-132" value="" style="shape=partialRectangle;overflow=hidden;connectable=0;fillColor=none;strokeColor=inherit;top=0;left=0;bottom=0;right=0;" vertex="1" parent="BobY1lfWQGTWMVGo28No-131">
          <mxGeometry width="30" height="30" as="geometry">
            <mxRectangle width="30" height="30" as="alternateBounds" />
          </mxGeometry>
        </mxCell>
        <mxCell id="BobY1lfWQGTWMVGo28No-133" value="`business_type` int(11) NOT NULL COMMENT &#39;业务类型&#39;" style="shape=partialRectangle;overflow=hidden;connectable=0;fillColor=none;align=left;strokeColor=inherit;top=0;left=0;bottom=0;right=0;spacingLeft=6;" vertex="1" parent="BobY1lfWQGTWMVGo28No-131">
          <mxGeometry x="30" width="330" height="30" as="geometry">
            <mxRectangle width="330" height="30" as="alternateBounds" />
          </mxGeometry>
        </mxCell>
        <mxCell id="BobY1lfWQGTWMVGo28No-134" value="" style="shape=tableRow;horizontal=0;startSize=0;swimlaneHead=0;swimlaneBody=0;fillColor=none;collapsible=0;dropTarget=0;points=[[0,0.5],[1,0.5]];portConstraint=eastwest;strokeColor=inherit;top=0;left=0;right=0;bottom=0;" vertex="1" parent="BobY1lfWQGTWMVGo28No-127">
          <mxGeometry y="90" width="360" height="30" as="geometry" />
        </mxCell>
        <mxCell id="BobY1lfWQGTWMVGo28No-135" value="" style="shape=partialRectangle;overflow=hidden;connectable=0;fillColor=none;strokeColor=inherit;top=0;left=0;bottom=0;right=0;" vertex="1" parent="BobY1lfWQGTWMVGo28No-134">
          <mxGeometry width="30" height="30" as="geometry">
            <mxRectangle width="30" height="30" as="alternateBounds" />
          </mxGeometry>
        </mxCell>
        <mxCell id="BobY1lfWQGTWMVGo28No-136" value="`template_name` varchar(255)   COMMENT &#39;模板名称&#39;" style="shape=partialRectangle;overflow=hidden;connectable=0;fillColor=none;align=left;strokeColor=inherit;top=0;left=0;bottom=0;right=0;spacingLeft=6;" vertex="1" parent="BobY1lfWQGTWMVGo28No-134">
          <mxGeometry x="30" width="330" height="30" as="geometry">
            <mxRectangle width="330" height="30" as="alternateBounds" />
          </mxGeometry>
        </mxCell>
        <mxCell id="BobY1lfWQGTWMVGo28No-137" value="" style="shape=tableRow;horizontal=0;startSize=0;swimlaneHead=0;swimlaneBody=0;fillColor=none;collapsible=0;dropTarget=0;points=[[0,0.5],[1,0.5]];portConstraint=eastwest;strokeColor=inherit;top=0;left=0;right=0;bottom=0;" vertex="1" parent="BobY1lfWQGTWMVGo28No-127">
          <mxGeometry y="120" width="360" height="30" as="geometry" />
        </mxCell>
        <mxCell id="BobY1lfWQGTWMVGo28No-138" value="" style="shape=partialRectangle;overflow=hidden;connectable=0;fillColor=none;strokeColor=inherit;top=0;left=0;bottom=0;right=0;" vertex="1" parent="BobY1lfWQGTWMVGo28No-137">
          <mxGeometry width="30" height="30" as="geometry">
            <mxRectangle width="30" height="30" as="alternateBounds" />
          </mxGeometry>
        </mxCell>
        <mxCell id="BobY1lfWQGTWMVGo28No-139" value="`create_time` datetime  COMMENT &#39;创建日期&#39;" style="shape=partialRectangle;overflow=hidden;connectable=0;fillColor=none;align=left;strokeColor=inherit;top=0;left=0;bottom=0;right=0;spacingLeft=6;" vertex="1" parent="BobY1lfWQGTWMVGo28No-137">
          <mxGeometry x="30" width="330" height="30" as="geometry">
            <mxRectangle width="330" height="30" as="alternateBounds" />
          </mxGeometry>
        </mxCell>
        <mxCell id="BobY1lfWQGTWMVGo28No-140" value="`proc_table_form`" style="shape=table;startSize=30;container=1;collapsible=1;childLayout=tableLayout;fixedRows=1;rowLines=0;fontStyle=1;align=center;resizeLast=1;" vertex="1" parent="1">
          <mxGeometry x="-280" y="600" width="340" height="210" as="geometry">
            <mxRectangle x="-540" y="280" width="140" height="30" as="alternateBounds" />
          </mxGeometry>
        </mxCell>
        <mxCell id="BobY1lfWQGTWMVGo28No-141" value="" style="shape=tableRow;horizontal=0;startSize=0;swimlaneHead=0;swimlaneBody=0;fillColor=none;collapsible=0;dropTarget=0;points=[[0,0.5],[1,0.5]];portConstraint=eastwest;strokeColor=inherit;top=0;left=0;right=0;bottom=1;" vertex="1" parent="BobY1lfWQGTWMVGo28No-140">
          <mxGeometry y="30" width="340" height="30" as="geometry" />
        </mxCell>
        <mxCell id="BobY1lfWQGTWMVGo28No-142" value="PK" style="shape=partialRectangle;overflow=hidden;connectable=0;fillColor=none;strokeColor=inherit;top=0;left=0;bottom=0;right=0;fontStyle=1;" vertex="1" parent="BobY1lfWQGTWMVGo28No-141">
          <mxGeometry width="30" height="30" as="geometry">
            <mxRectangle width="30" height="30" as="alternateBounds" />
          </mxGeometry>
        </mxCell>
        <mxCell id="BobY1lfWQGTWMVGo28No-143" value="`id` bigint(20) NOT NULL AUTO_INCREMENT" style="shape=partialRectangle;overflow=hidden;connectable=0;fillColor=none;align=left;strokeColor=inherit;top=0;left=0;bottom=0;right=0;spacingLeft=6;fontStyle=5;" vertex="1" parent="BobY1lfWQGTWMVGo28No-141">
          <mxGeometry x="30" width="310" height="30" as="geometry">
            <mxRectangle width="310" height="30" as="alternateBounds" />
          </mxGeometry>
        </mxCell>
        <mxCell id="BobY1lfWQGTWMVGo28No-144" value="" style="shape=tableRow;horizontal=0;startSize=0;swimlaneHead=0;swimlaneBody=0;fillColor=none;collapsible=0;dropTarget=0;points=[[0,0.5],[1,0.5]];portConstraint=eastwest;strokeColor=inherit;top=0;left=0;right=0;bottom=0;" vertex="1" parent="BobY1lfWQGTWMVGo28No-140">
          <mxGeometry y="60" width="340" height="30" as="geometry" />
        </mxCell>
        <mxCell id="BobY1lfWQGTWMVGo28No-145" value="" style="shape=partialRectangle;overflow=hidden;connectable=0;fillColor=none;strokeColor=inherit;top=0;left=0;bottom=0;right=0;" vertex="1" parent="BobY1lfWQGTWMVGo28No-144">
          <mxGeometry width="30" height="30" as="geometry">
            <mxRectangle width="30" height="30" as="alternateBounds" />
          </mxGeometry>
        </mxCell>
        <mxCell id="BobY1lfWQGTWMVGo28No-146" value="`table_name` varchar(255)   COMMENT &#39;业务表名称&#39;" style="shape=partialRectangle;overflow=hidden;connectable=0;fillColor=none;align=left;strokeColor=inherit;top=0;left=0;bottom=0;right=0;spacingLeft=6;" vertex="1" parent="BobY1lfWQGTWMVGo28No-144">
          <mxGeometry x="30" width="310" height="30" as="geometry">
            <mxRectangle width="310" height="30" as="alternateBounds" />
          </mxGeometry>
        </mxCell>
        <mxCell id="BobY1lfWQGTWMVGo28No-147" value="" style="shape=tableRow;horizontal=0;startSize=0;swimlaneHead=0;swimlaneBody=0;fillColor=none;collapsible=0;dropTarget=0;points=[[0,0.5],[1,0.5]];portConstraint=eastwest;strokeColor=inherit;top=0;left=0;right=0;bottom=0;" vertex="1" parent="BobY1lfWQGTWMVGo28No-140">
          <mxGeometry y="90" width="340" height="30" as="geometry" />
        </mxCell>
        <mxCell id="BobY1lfWQGTWMVGo28No-148" value="" style="shape=partialRectangle;overflow=hidden;connectable=0;fillColor=none;strokeColor=inherit;top=0;left=0;bottom=0;right=0;" vertex="1" parent="BobY1lfWQGTWMVGo28No-147">
          <mxGeometry width="30" height="30" as="geometry">
            <mxRectangle width="30" height="30" as="alternateBounds" />
          </mxGeometry>
        </mxCell>
        <mxCell id="BobY1lfWQGTWMVGo28No-149" value="`db_table_name` varchar(255)   COMMENT &#39;数据库表名&#39;" style="shape=partialRectangle;overflow=hidden;connectable=0;fillColor=none;align=left;strokeColor=inherit;top=0;left=0;bottom=0;right=0;spacingLeft=6;" vertex="1" parent="BobY1lfWQGTWMVGo28No-147">
          <mxGeometry x="30" width="310" height="30" as="geometry">
            <mxRectangle width="310" height="30" as="alternateBounds" />
          </mxGeometry>
        </mxCell>
        <mxCell id="BobY1lfWQGTWMVGo28No-150" value="" style="shape=tableRow;horizontal=0;startSize=0;swimlaneHead=0;swimlaneBody=0;fillColor=none;collapsible=0;dropTarget=0;points=[[0,0.5],[1,0.5]];portConstraint=eastwest;strokeColor=inherit;top=0;left=0;right=0;bottom=0;" vertex="1" parent="BobY1lfWQGTWMVGo28No-140">
          <mxGeometry y="120" width="340" height="30" as="geometry" />
        </mxCell>
        <mxCell id="BobY1lfWQGTWMVGo28No-151" value="" style="shape=partialRectangle;overflow=hidden;connectable=0;fillColor=none;strokeColor=inherit;top=0;left=0;bottom=0;right=0;" vertex="1" parent="BobY1lfWQGTWMVGo28No-150">
          <mxGeometry width="30" height="30" as="geometry">
            <mxRectangle width="30" height="30" as="alternateBounds" />
          </mxGeometry>
        </mxCell>
        <mxCell id="BobY1lfWQGTWMVGo28No-152" value="`business_type` int(255)  COMMENT &#39;业务类型&#39;" style="shape=partialRectangle;overflow=hidden;connectable=0;fillColor=none;align=left;strokeColor=inherit;top=0;left=0;bottom=0;right=0;spacingLeft=6;" vertex="1" parent="BobY1lfWQGTWMVGo28No-150">
          <mxGeometry x="30" width="310" height="30" as="geometry">
            <mxRectangle width="310" height="30" as="alternateBounds" />
          </mxGeometry>
        </mxCell>
        <mxCell id="BobY1lfWQGTWMVGo28No-153" value="" style="shape=tableRow;horizontal=0;startSize=0;swimlaneHead=0;swimlaneBody=0;fillColor=none;collapsible=0;dropTarget=0;points=[[0,0.5],[1,0.5]];portConstraint=eastwest;strokeColor=inherit;top=0;left=0;right=0;bottom=0;" vertex="1" parent="BobY1lfWQGTWMVGo28No-140">
          <mxGeometry y="150" width="340" height="30" as="geometry" />
        </mxCell>
        <mxCell id="BobY1lfWQGTWMVGo28No-154" value="" style="shape=partialRectangle;overflow=hidden;connectable=0;fillColor=none;strokeColor=inherit;top=0;left=0;bottom=0;right=0;" vertex="1" parent="BobY1lfWQGTWMVGo28No-153">
          <mxGeometry width="30" height="30" as="geometry">
            <mxRectangle width="30" height="30" as="alternateBounds" />
          </mxGeometry>
        </mxCell>
        <mxCell id="BobY1lfWQGTWMVGo28No-155" value="`template_id` bigint(20)  COMMENT &#39;关联表单id&#39;" style="shape=partialRectangle;overflow=hidden;connectable=0;fillColor=none;align=left;strokeColor=inherit;top=0;left=0;bottom=0;right=0;spacingLeft=6;" vertex="1" parent="BobY1lfWQGTWMVGo28No-153">
          <mxGeometry x="30" width="310" height="30" as="geometry">
            <mxRectangle width="310" height="30" as="alternateBounds" />
          </mxGeometry>
        </mxCell>
        <mxCell id="BobY1lfWQGTWMVGo28No-156" value="" style="shape=tableRow;horizontal=0;startSize=0;swimlaneHead=0;swimlaneBody=0;fillColor=none;collapsible=0;dropTarget=0;points=[[0,0.5],[1,0.5]];portConstraint=eastwest;strokeColor=inherit;top=0;left=0;right=0;bottom=0;" vertex="1" parent="BobY1lfWQGTWMVGo28No-140">
          <mxGeometry y="180" width="340" height="30" as="geometry" />
        </mxCell>
        <mxCell id="BobY1lfWQGTWMVGo28No-157" value="" style="shape=partialRectangle;overflow=hidden;connectable=0;fillColor=none;strokeColor=inherit;top=0;left=0;bottom=0;right=0;" vertex="1" parent="BobY1lfWQGTWMVGo28No-156">
          <mxGeometry width="30" height="30" as="geometry">
            <mxRectangle width="30" height="30" as="alternateBounds" />
          </mxGeometry>
        </mxCell>
        <mxCell id="BobY1lfWQGTWMVGo28No-158" value="`create_time` datetime  COMMENT &#39;创建时间&#39;" style="shape=partialRectangle;overflow=hidden;connectable=0;fillColor=none;align=left;strokeColor=inherit;top=0;left=0;bottom=0;right=0;spacingLeft=6;" vertex="1" parent="BobY1lfWQGTWMVGo28No-156">
          <mxGeometry x="30" width="310" height="30" as="geometry">
            <mxRectangle width="310" height="30" as="alternateBounds" />
          </mxGeometry>
        </mxCell>
        <mxCell id="BobY1lfWQGTWMVGo28No-159" style="edgeStyle=orthogonalEdgeStyle;rounded=0;orthogonalLoop=1;jettySize=auto;html=1;entryX=0;entryY=0.5;entryDx=0;entryDy=0;" edge="1" parent="1" source="BobY1lfWQGTWMVGo28No-91" target="BobY1lfWQGTWMVGo28No-128">
          <mxGeometry relative="1" as="geometry" />
        </mxCell>
        <mxCell id="BobY1lfWQGTWMVGo28No-160" style="edgeStyle=orthogonalEdgeStyle;rounded=0;orthogonalLoop=1;jettySize=auto;html=1;entryX=1;entryY=0.5;entryDx=0;entryDy=0;" edge="1" parent="1" source="BobY1lfWQGTWMVGo28No-153" target="BobY1lfWQGTWMVGo28No-128">
          <mxGeometry relative="1" as="geometry">
            <Array as="points">
              <mxPoint x="150" y="765" />
              <mxPoint x="150" y="425" />
            </Array>
          </mxGeometry>
        </mxCell>
        <mxCell id="BobY1lfWQGTWMVGo28No-162" style="edgeStyle=orthogonalEdgeStyle;rounded=0;orthogonalLoop=1;jettySize=auto;html=1;" edge="1" parent="1" source="BobY1lfWQGTWMVGo28No-5" target="BobY1lfWQGTWMVGo28No-39">
          <mxGeometry relative="1" as="geometry" />
        </mxCell>
        <mxCell id="BobY1lfWQGTWMVGo28No-163" style="edgeStyle=orthogonalEdgeStyle;rounded=0;orthogonalLoop=1;jettySize=auto;html=1;exitX=0;exitY=0.5;exitDx=0;exitDy=0;entryX=1;entryY=0.5;entryDx=0;entryDy=0;" edge="1" parent="1" source="BobY1lfWQGTWMVGo28No-36" target="BobY1lfWQGTWMVGo28No-128">
          <mxGeometry relative="1" as="geometry">
            <mxPoint x="90" y="425.39130434782624" as="targetPoint" />
            <Array as="points">
              <mxPoint x="240" y="370" />
              <mxPoint x="150" y="370" />
              <mxPoint x="150" y="425" />
            </Array>
          </mxGeometry>
        </mxCell>
      </root>
    </mxGraphModel>
  </diagram>
</mxfile>
